PathFileType	4	(X/Y/Z)	Patient4_TMGait_0pt2_01_right_17.trc.trc
DataRate	CameraRate	NumFrames	NumMarkers	Units	OrigDataRate	OrigDataStartFrame	OrigNumFrames
42.424242424242	42.424242424242	5	33	mm	42.424242424242	18	       141
Frame#	Time	Sacral			L.Shoulder			Chest			R.Shoulder			Neck			R.ASIS			L.ASIS			R.Thigh.Superior			R.Thigh.Lateral			R.Thigh.Inferior			R.Patella			L.Thigh.Superior			L.Thigh.Lateral			L.Thigh.Inferior			L.Patella			L.Shank.Superior			L.Shank.Lateral			L.Shank.Inferior			R.Shank.Superior			R.Shank.Lateral			R.Shank.Inferior			R.Heel			R.Midfoot.Superior			R.Midfoot.Lateral			R.Toe			L.Heel			L.Midfoot.Lateral			L.Midfoot.Superior			L.Toe			L.Elbow			L.Wrist			R.Elbow			R.Wrist			
		X1	Y1	Z1	X2	Y2	Z2	X3	Y3	Z3	X4	Y4	Z4	X5	Y5	Z5	X6	Y6	Z6	X7	Y7	Z7	X8	Y8	Z8	X9	Y9	Z9	X10	Y10	Z10	X11	Y11	Z11	X12	Y12	Z12	X13	Y13	Z13	X14	Y14	Z14	X15	Y15	Z15	X16	Y16	Z16	X17	Y17	Z17	X18	Y18	Z18	X19	Y19	Z19	X20	Y20	Z20	X21	Y21	Z21	X22	Y22	Z22	X23	Y23	Z23	X24	Y24	Z24	X25	Y25	Z25	X26	Y26	Z26	X27	Y27	Z27	X28	Y28	Z28	X29	Y29	Z29	X30	Y30	Z30	X31	Y31	Z31	X32	Y32	Z32	X33	Y33	Z33	

18	38.230714285714	700.570417729239	1008.711362917033	378.752440969773	938.750725214840	1434.842061824460	252.938108907484	989.004407247456	1361.252680120716	434.769525030215	862.873025580216	1436.135852433012	579.931987457605	874.001640336153	1494.071944269982	403.017916168760	897.599235179390	944.260100105654	548.203177262397	945.096132660943	958.437232712120	276.824305166231	973.199389071452	766.808847113809	525.788494052453	919.146031549200	648.696511645609	594.370114794015	1009.934685595472	604.961463892276	521.340374130095	1035.632541037193	514.894876562144	543.625717625560	973.360849725624	739.610112079404	320.300792795668	893.158574482388	621.053408785380	249.342970225061	958.184832592756	545.829810490934	332.777620860908	952.688740552560	475.451129365771	343.367580962966	916.485573611047	404.171990080315	331.138501667444	823.588384765072	298.526428866390	270.202735270470	847.256644443018	185.435423644291	349.175118837903	1000.986476771185	426.615243375450	556.608908640821	921.505415591792	331.971007809137	624.278775966087	970.179660964597	229.779129068252	579.064132371964	839.200436024556	57.496898316841	559.485830318146	1008.941372388538	113.852796148896	597.091153665451	923.557956974048	48.571277715785	633.363315941177	1129.553843167584	68.325890498416	625.701342272261	700.334153943545	38.698581098286	377.546394513218	780.760462593817	35.280244421802	303.227263756963	862.720850491250	95.307256507421	337.747858765403	992.517891534468	40.577923136401	318.646554824134	1098.969545188927	1160.307973165077	94.625761570701	1355.127801781049	1131.482950065750	135.477241442289	687.627423893050	1125.728028230210	637.863687383256	659.841072780281	864.835597661038	615.196903347872	
19	38.254285714286	700.702369663748	1008.963927393126	380.612314916461	939.882232000824	1434.834001899724	256.348471321030	988.288769615210	1361.705835296418	438.841589921916	860.731343616033	1437.071352622542	582.443055395267	873.614663224789	1494.354264623703	405.675591147804	896.023193233800	944.221295976861	551.962169469065	946.066980990632	958.592808761583	280.894779577167	970.101061578179	765.482249457480	531.198440143078	913.693934548671	647.631322527329	598.737853407498	1005.152382435410	603.771255742018	526.850736797319	1030.206952317374	515.833809384479	547.996035143402	971.528109951030	738.889513124377	323.728573080747	890.490837040146	621.545216905655	251.053847608906	953.973564861394	545.217385611082	334.316485785827	947.457996580760	475.140393954141	344.510700890732	911.566611617363	404.210809408306	331.892684668915	818.708723842669	298.714979185015	270.629044416695	842.439892660726	185.491920702315	349.494687886690	999.827427927348	426.731708130454	560.710650253932	925.027262914183	328.034871844237	629.017505415811	978.059331406528	227.861201678289	583.098668011323	853.633810777683	50.762103762198	564.394111479306	1022.514792467432	111.816748422881	600.257649449928	939.378803637541	43.402335924043	637.039186958601	1145.212704653442	69.388289033322	626.588820378652	695.549688873637	38.647595227755	377.521669346818	775.969712145101	35.233266318879	303.197422567272	857.933395308036	95.311182241469	337.771780781085	987.727255447862	40.606815784441	318.679957929489	1106.373779035752	1165.053762881480	99.406983965951	1363.359600472807	1150.020359664917	141.720034126085	684.399092296377	1127.623012906748	638.426286048099	658.019513875416	866.488082779350	614.943655123126	
20	38.277857142857	701.209082964457	1008.762828084405	383.080791111752	940.528589996830	1434.577731885996	260.120441665013	987.577706682685	1361.976365282730	443.145819360068	858.818360695227	1437.596649800866	585.475520205415	873.069203553659	1494.341623957123	408.798998198112	895.075007340314	943.715136611152	555.911535422002	947.311379965476	958.601973885151	285.175213098027	967.838382499433	763.731915985275	536.538072375332	909.072006271373	646.018424063792	602.742136424673	1001.307287268435	602.167879498309	532.017528771260	1025.297733074366	515.871029566105	551.984416126745	970.184322936827	738.037122083268	327.292312938376	888.278744059847	621.888196286078	252.987842942734	950.221364475291	544.480275828859	336.015107804179	942.714522397415	474.662341929564	345.801548271395	907.043945347900	404.086842944306	332.793578067660	814.083917464841	298.880114217537	271.143565715714	837.753548148578	185.472902669879	349.865264550215	998.333360282285	426.165473476152	564.332856844367	927.144230492903	324.544099544131	632.874558913045	983.336933682366	226.124553032293	586.254485380514	863.734457167549	46.360581171169	567.934472053144	1032.046666626309	109.998185106592	602.583070241011	950.334086345930	39.836728496123	639.632797971060	1155.772890579828	69.216180152940	627.022015835409	690.755919183167	38.591098889740	377.492768491822	771.172890701210	35.174775291836	303.164659111152	853.142555607374	95.311956899489	337.799085511063	982.930305030069	40.639940287286	318.714291871925	1112.594238787775	1169.027358397886	104.631501554301	1369.747344205707	1166.652286805434	148.093024272028	682.861791687586	1128.186973998254	640.004903894817	658.498625511896	866.702054467525	616.312259497679	
21	38.301428571429	702.116847886813	1008.205981117164	386.141092128030	940.753640402576	1434.153220812354	264.272988052690	986.911358242424	1362.140965963491	447.719302656035	857.147219344433	1437.796261588610	589.056748543922	872.388269427066	1494.103997136409	412.408565565742	894.780997455995	942.847976005374	560.072989541500	948.867362804361	958.536722234991	289.686802960195	966.494517323817	761.708358794942	541.700278050693	905.445190933678	644.014415568782	606.320359698193	998.506767811598	600.298529559105	536.716876422529	1021.129196712033	515.139318303176	555.509475000938	969.312125302093	737.069131504921	330.980541622726	886.438461883383	622.129261215629	255.147856667234	946.819458881801	543.647693725343	337.878114487324	938.341020380561	474.059112944026	347.246035513885	902.815239814176	403.853961890158	333.841983238248	809.641046697562	299.051960986673	271.744903714505	833.155397753986	185.403717184795	350.275097517443	996.696228486550	424.991605596737	567.407636285068	928.010645338860	321.446330468861	635.821375771414	986.208640460928	224.433631005868	588.474140857666	869.644714042928	43.807733404677	570.119474133901	1037.749539745809	108.294991559394	604.010083670418	956.650667404506	37.593954379047	641.185262841944	1161.661011124314	67.908378589984	627.030700154141	685.953685277804	38.530145285039	377.459696510864	766.370817865080	35.106470554988	303.130946604158	848.349059350080	95.311182369725	337.824985115755	978.127800916958	40.678126117689	318.747795132521	1117.625519792257	1172.239560255200	110.212950479972	1374.440351141047	1181.243386418368	154.510568895240	682.836928949150	1127.615964436376	642.675289703096	660.912594271304	865.728450280018	619.406228541752	
22	38.325000000000	703.422859858579	1007.405368288684	389.766907448395	940.650837467666	1433.637531803589	268.811218135074	986.337562366909	1362.266031951472	452.585249675143	855.741677736452	1437.762248772640	593.188961024946	871.614423740668	1493.714525834032	416.504571198949	895.137383240876	941.744945950096	564.469908101369	950.738113314713	958.455778234216	294.445690557973	966.087936825094	759.563690750315	546.610281359952	902.910619286977	641.794960172364	609.481448558760	996.769954040110	598.304489793948	540.884153425546	1017.854427573509	513.805269989992	558.543418119282	968.858688262978	736.006235552036	334.779537588116	884.861921579353	622.316931939859	257.531511876137	943.650564725286	542.754700487651	339.901710929047	934.214518471038	473.379843923407	348.841748923996	898.776251735947	403.570164240200	335.034868431765	805.304096149705	299.263029367362	272.436009763338	828.603919199152	185.311171992131	350.712479921964	995.100180929653	423.326815786498	569.927309894807	927.879116302884	318.687600540105	637.932136306691	987.023810218264	222.697053511852	589.796699439213	871.816925189756	42.588175434927	571.104169792565	1040.072292249851	106.661312138691	604.576501512686	958.886872326012	36.377380400380	641.838583671151	1163.571095712853	65.711943579724	626.673074353567	681.146233701013	38.469386812322	377.424538836372	761.565939745494	35.033949806208	303.100942626254	843.555308792345	95.310703160236	337.847181862348	973.321361731492	40.719395922606	318.778652189370	1121.521869898524	1174.726959288360	116.059677300200	1377.645806113530	1193.726963812455	160.896437050247	684.105532974187	1126.167132375492	646.474334136452	664.885086173972	863.873578018944	624.271507680581	
